<mxfile host="65bd71144e">
    <diagram id="ui_XpPdwJASniN_YZz2-" name="Page-1">
        <mxGraphModel dx="1802" dy="1103" grid="1" gridSize="10" guides="1" tooltips="1" connect="1" arrows="1" fold="1" page="1" pageScale="1" pageWidth="827" pageHeight="1169" math="0" shadow="0">
            <root>
                <mxCell id="0"/>
                <mxCell id="1" parent="0"/>
                <mxCell id="4" value="" style="edgeStyle=none;html=1;fontSize=18;fontColor=#fff;" parent="1" source="2" target="3" edge="1">
                    <mxGeometry relative="1" as="geometry"/>
                </mxCell>
                <mxCell id="2" value="&lt;p class=&quot;p1&quot; style=&quot;margin: 0px ; font-stretch: normal ; line-height: normal ; font-family: &amp;#34;helvetica neue&amp;#34; ; font-size: 18px&quot;&gt;&lt;font color=&quot;#ffffff&quot;&gt;unstable_scheduleCallback&lt;span class=&quot;s1&quot; style=&quot;font-stretch: normal ; line-height: normal ; font-family: &amp;#34;pingfang sc&amp;#34;&quot;&gt;[&lt;/span&gt;priorityLevel, &lt;b&gt;callback&lt;/b&gt;, options&lt;span class=&quot;s1&quot; style=&quot;font-stretch: normal ; line-height: normal ; font-family: &amp;#34;pingfang sc&amp;#34;&quot;&gt;]&lt;/span&gt;&lt;/font&gt;&lt;/p&gt;" style="rounded=0;whiteSpace=wrap;html=1;" parent="1" vertex="1">
                    <mxGeometry x="-670" y="30" width="560" height="110" as="geometry"/>
                </mxCell>
                <mxCell id="8" value="" style="edgeStyle=none;html=1;fontSize=18;fontColor=#fff;" parent="1" source="3" target="7" edge="1">
                    <mxGeometry relative="1" as="geometry"/>
                </mxCell>
                <mxCell id="26" value="" style="edgeStyle=none;html=1;fontSize=16;fontColor=#4074CE;" parent="1" source="3" target="25" edge="1">
                    <mxGeometry relative="1" as="geometry"/>
                </mxCell>
                <mxCell id="3" value="&lt;p class=&quot;p1&quot; style=&quot;margin: 0px ; font-stretch: normal ; line-height: normal ; font-family: &amp;#34;helvetica neue&amp;#34; ; font-size: 18px&quot;&gt;&lt;font color=&quot;#ffffff&quot; style=&quot;font-size: 18px&quot;&gt;构造task：&lt;/font&gt;&lt;/p&gt;&lt;p class=&quot;p2&quot; style=&quot;margin: 0px ; font-stretch: normal ; line-height: normal ; font-family: &amp;#34;helvetica neue&amp;#34; ; min-height: 14px ; font-size: 18px&quot;&gt;&lt;br&gt;&lt;/p&gt;" style="whiteSpace=wrap;html=1;rounded=0;align=left;" parent="1" vertex="1">
                    <mxGeometry x="-525" y="220" width="280" height="50" as="geometry"/>
                </mxCell>
                <mxCell id="10" value="" style="edgeStyle=none;html=1;fontSize=18;fontColor=#fff;" parent="1" source="7" target="9" edge="1">
                    <mxGeometry relative="1" as="geometry"/>
                </mxCell>
                <mxCell id="12" value="" style="edgeStyle=none;html=1;fontSize=18;fontColor=#fff;" parent="1" source="7" target="11" edge="1">
                    <mxGeometry relative="1" as="geometry"/>
                </mxCell>
                <mxCell id="7" value="&lt;p class=&quot;p1&quot; style=&quot;margin: 0px ; font-stretch: normal ; line-height: normal ; font-family: &amp;#34;helvetica neue&amp;#34;&quot;&gt;&lt;font style=&quot;font-size: 18px&quot; color=&quot;#ffffff&quot;&gt;startTime &amp;gt; currentTime&lt;/font&gt;&lt;/p&gt;" style="ellipse;whiteSpace=wrap;html=1;align=center;rounded=0;" parent="1" vertex="1">
                    <mxGeometry x="-515" y="330" width="270" height="125" as="geometry"/>
                </mxCell>
                <mxCell id="14" value="" style="edgeStyle=none;html=1;fontSize=18;fontColor=#fff;" parent="1" source="9" target="13" edge="1">
                    <mxGeometry relative="1" as="geometry"/>
                </mxCell>
                <mxCell id="9" value="yes" style="rounded=0;whiteSpace=wrap;html=1;" parent="1" vertex="1">
                    <mxGeometry x="-620" y="455" width="120" height="60" as="geometry"/>
                </mxCell>
                <mxCell id="16" value="" style="edgeStyle=none;html=1;fontSize=18;fontColor=#fff;" parent="1" source="11" target="15" edge="1">
                    <mxGeometry relative="1" as="geometry"/>
                </mxCell>
                <mxCell id="11" value="no&lt;br&gt;" style="whiteSpace=wrap;html=1;rounded=0;" parent="1" vertex="1">
                    <mxGeometry x="-230" y="455" width="120" height="60" as="geometry"/>
                </mxCell>
                <mxCell id="13" value="&lt;span&gt;&lt;font style=&quot;font-size: 18px&quot;&gt;push(timerQueue, newTask) &amp;amp; requestHostTimeout&lt;/font&gt;&lt;/span&gt;" style="rounded=0;whiteSpace=wrap;html=1;" parent="1" vertex="1">
                    <mxGeometry x="-810" y="580" width="370" height="110" as="geometry"/>
                </mxCell>
                <mxCell id="27" value="" style="edgeStyle=none;html=1;fontSize=16;fontColor=#4074CE;" parent="1" source="15" target="17" edge="1">
                    <mxGeometry relative="1" as="geometry"/>
                </mxCell>
                <mxCell id="15" value="&lt;p class=&quot;p1&quot; style=&quot;margin: 0px ; font-stretch: normal ; line-height: normal ; font-family: &amp;#34;helvetica neue&amp;#34;&quot;&gt;&lt;font color=&quot;#ffffff&quot; style=&quot;font-size: 18px&quot;&gt;push(taskQueue, newTask) &amp;amp; requestHostCallback(flushWork);&lt;/font&gt;&lt;/p&gt;" style="rounded=0;whiteSpace=wrap;html=1;" parent="1" vertex="1">
                    <mxGeometry x="-280" y="580" width="330" height="110" as="geometry"/>
                </mxCell>
                <mxCell id="31" style="edgeStyle=none;html=1;exitX=0.5;exitY=0;exitDx=0;exitDy=0;entryX=0;entryY=1;entryDx=0;entryDy=0;fontSize=18;fontColor=#FFFFFF;" parent="1" source="17" target="29" edge="1">
                    <mxGeometry relative="1" as="geometry"/>
                </mxCell>
                <mxCell id="17" value="&lt;div style=&quot;background-color: rgb(30 , 30 , 30) ; line-height: 27px&quot;&gt;&lt;font face=&quot;fira code, menlo, monaco, courier new, monospace&quot; style=&quot;font-size: 16px&quot; color=&quot;#e6ffcc&quot;&gt;scheduledHostCallback&lt;/font&gt;&lt;font face=&quot;fira code, menlo, monaco, courier new, monospace&quot; color=&quot;#ffffff&quot; style=&quot;font-size: 16px&quot;&gt; = flushWork&lt;/font&gt;&lt;br&gt;&lt;div style=&quot;color: rgb(197 , 200 , 198) ; font-family: &amp;#34;fira code&amp;#34; , &amp;#34;menlo&amp;#34; , &amp;#34;monaco&amp;#34; , &amp;#34;courier new&amp;#34; , monospace ; font-size: 18px ; line-height: 27px&quot;&gt;&lt;span style=&quot;color: #ce6700&quot;&gt;schedulePerformWorkUntilDeadline()&lt;/span&gt;&lt;/div&gt;&lt;div style=&quot;font-family: &amp;#34;fira code&amp;#34; , &amp;#34;menlo&amp;#34; , &amp;#34;monaco&amp;#34; , &amp;#34;courier new&amp;#34; , monospace ; font-size: 18px ; line-height: 27px&quot;&gt;&lt;span style=&quot;color: rgb(206 , 103 , 0)&quot;&gt;将&lt;/span&gt;&lt;span style=&quot;font-family: &amp;#34;fira code&amp;#34; , &amp;#34;menlo&amp;#34; , &amp;#34;monaco&amp;#34; , &amp;#34;courier new&amp;#34; , monospace&quot;&gt;&lt;font color=&quot;#4074ce&quot;&gt;performWorkUntilDeadline&lt;/font&gt;&lt;/span&gt;&lt;span style=&quot;color: rgb(206 , 103 , 0)&quot;&gt;任务&lt;/span&gt;&lt;span style=&quot;color: rgb(206 , 103 , 0)&quot;&gt;塞入宏队列等待plaint后执行&lt;/span&gt;&lt;/div&gt;&lt;div style=&quot;color: rgb(197 , 200 , 198) ; font-family: &amp;#34;fira code&amp;#34; , &amp;#34;menlo&amp;#34; , &amp;#34;monaco&amp;#34; , &amp;#34;courier new&amp;#34; , monospace ; font-size: 18px ; line-height: 27px&quot;&gt;&lt;span style=&quot;color: rgb(206 , 103 , 0)&quot;&gt;&amp;nbsp;&lt;/span&gt;&lt;/div&gt;&lt;/div&gt;" style="whiteSpace=wrap;html=1;rounded=0;align=left;" parent="1" vertex="1">
                    <mxGeometry x="-280" y="730" width="540" height="130" as="geometry"/>
                </mxCell>
                <mxCell id="25" value="&lt;p class=&quot;p1&quot; style=&quot;margin: 0px ; font-stretch: normal ; line-height: normal ; font-family: &amp;#34;helvetica neue&amp;#34; ; font-size: 18px&quot;&gt;&lt;font color=&quot;#ffffff&quot;&gt;newTask = {&lt;/font&gt;&lt;/p&gt;&lt;p class=&quot;p1&quot; style=&quot;margin: 0px ; font-stretch: normal ; line-height: normal ; font-family: &amp;#34;helvetica neue&amp;#34; ; font-size: 18px&quot;&gt;&lt;font color=&quot;#ffffff&quot;&gt;&lt;span class=&quot;Apple-converted-space&quot;&gt;&amp;nbsp; &amp;nbsp;&amp;nbsp;&lt;/span&gt;id: taskIdCounter++,&lt;/font&gt;&lt;/p&gt;&lt;p class=&quot;p1&quot; style=&quot;margin: 0px ; font-stretch: normal ; line-height: normal ; font-family: &amp;#34;helvetica neue&amp;#34; ; font-size: 18px&quot;&gt;&lt;font color=&quot;#ffffff&quot;&gt;&lt;span class=&quot;Apple-converted-space&quot;&gt;&amp;nbsp; &amp;nbsp;&amp;nbsp;&lt;/span&gt;&lt;b&gt;callback&lt;/b&gt;,&lt;/font&gt;&lt;/p&gt;&lt;p class=&quot;p1&quot; style=&quot;margin: 0px ; font-stretch: normal ; line-height: normal ; font-family: &amp;#34;helvetica neue&amp;#34; ; font-size: 18px&quot;&gt;&lt;font color=&quot;#ffffff&quot;&gt;&lt;span class=&quot;Apple-converted-space&quot;&gt;&amp;nbsp; &amp;nbsp;&amp;nbsp;&lt;/span&gt;priorityLevel,&lt;/font&gt;&lt;/p&gt;&lt;p class=&quot;p1&quot; style=&quot;margin: 0px ; font-stretch: normal ; line-height: normal ; font-family: &amp;#34;helvetica neue&amp;#34; ; font-size: 18px&quot;&gt;&lt;font color=&quot;#ffffff&quot;&gt;&lt;span class=&quot;Apple-converted-space&quot;&gt;&amp;nbsp; &amp;nbsp;&amp;nbsp;&lt;/span&gt;startTime,&lt;/font&gt;&lt;/p&gt;&lt;p class=&quot;p1&quot; style=&quot;margin: 0px ; font-stretch: normal ; line-height: normal ; font-family: &amp;#34;helvetica neue&amp;#34; ; font-size: 18px&quot;&gt;&lt;font color=&quot;#ffffff&quot;&gt;&lt;span class=&quot;Apple-converted-space&quot;&gt;&amp;nbsp; &amp;nbsp;&amp;nbsp;&lt;/span&gt;expirationTime,&lt;/font&gt;&lt;/p&gt;&lt;p class=&quot;p1&quot; style=&quot;margin: 0px ; font-stretch: normal ; line-height: normal ; font-family: &amp;#34;helvetica neue&amp;#34; ; font-size: 18px&quot;&gt;&lt;font color=&quot;#ffffff&quot;&gt;&lt;span class=&quot;Apple-converted-space&quot;&gt;&amp;nbsp; &amp;nbsp;&amp;nbsp;&lt;/span&gt;sortIndex: -1,&lt;/font&gt;&lt;/p&gt;&lt;p class=&quot;p1&quot; style=&quot;margin: 0px ; font-stretch: normal ; line-height: normal ; font-family: &amp;#34;helvetica neue&amp;#34; ; font-size: 18px&quot;&gt;&lt;font color=&quot;#ffffff&quot;&gt;&lt;span class=&quot;Apple-converted-space&quot;&gt;&amp;nbsp;&amp;nbsp;&lt;/span&gt;}&lt;/font&gt;&lt;/p&gt;" style="whiteSpace=wrap;html=1;align=left;rounded=0;" parent="1" vertex="1">
                    <mxGeometry x="-20" y="170" width="310" height="190" as="geometry"/>
                </mxCell>
                <mxCell id="28" value="&lt;font style=&quot;font-size: 18px&quot;&gt;performWorkUntilDeadline:&lt;br&gt;&lt;/font&gt;&lt;font color=&quot;#e6ffcc&quot;&gt;scheduledHostCallback&lt;/font&gt;&lt;font color=&quot;#ffffff&quot;&gt; !== null&lt;br&gt;hasMoreWork = scheduledHostCallback(hasTimeRemaining, currentTime)&lt;br&gt;if(hasMoreWork) schedulePerformWorkUntilDeadline();&lt;br&gt;&lt;/font&gt;" style="whiteSpace=wrap;html=1;fontSize=16;fontColor=#4074CE;align=left;" parent="1" vertex="1">
                    <mxGeometry x="-280" y="890" width="550" height="100" as="geometry"/>
                </mxCell>
                <mxCell id="33" value="" style="edgeStyle=none;html=1;fontSize=18;fontColor=#FFFFFF;" parent="1" source="29" target="32" edge="1">
                    <mxGeometry relative="1" as="geometry"/>
                </mxCell>
                <mxCell id="29" value="&lt;font color=&quot;#cce5ff&quot;&gt;flushWork&lt;/font&gt;:&lt;br&gt;&lt;font color=&quot;#ffffff&quot;&gt;workLoop&lt;/font&gt;" style="whiteSpace=wrap;html=1;fontSize=18;fontColor=#E6FFCC;" parent="1" vertex="1">
                    <mxGeometry x="140" y="600" width="120" height="60" as="geometry"/>
                </mxCell>
                <mxCell id="32" value="&lt;div&gt;1.get current task&lt;/div&gt;&lt;font color=&quot;#ffffff&quot;&gt;&lt;br&gt;&lt;/font&gt;&lt;span style=&quot;color: rgb(255 , 255 , 255)&quot;&gt;current task is&amp;nbsp;&lt;/span&gt;&lt;font color=&quot;#ffcce6&quot;&gt;performConcurrentWorkOnRoot&lt;/font&gt;&lt;div&gt;&lt;font color=&quot;#ffffff&quot;&gt;&amp;nbsp;&lt;/font&gt;&lt;br&gt;2. check if it is expired or not&lt;br&gt;&lt;div style=&quot;color: rgb(197 , 200 , 198) ; background-color: rgb(30 , 30 , 30) ; font-family: &amp;#34;fira code&amp;#34; , &amp;#34;menlo&amp;#34; , &amp;#34;monaco&amp;#34; , &amp;#34;courier new&amp;#34; , monospace ; line-height: 27px&quot;&gt;&lt;span style=&quot;font-family: &amp;#34;fira code&amp;#34; , &amp;#34;menlo&amp;#34; , &amp;#34;monaco&amp;#34; , &amp;#34;courier new&amp;#34; , monospace ; color: rgb(152 , 114 , 162)&quot;&gt;const&lt;/span&gt;&lt;span style=&quot;font-family: &amp;#34;fira code&amp;#34; , &amp;#34;menlo&amp;#34; , &amp;#34;monaco&amp;#34; , &amp;#34;courier new&amp;#34; , monospace&quot;&gt; &lt;/span&gt;&lt;span style=&quot;font-family: &amp;#34;fira code&amp;#34; , &amp;#34;menlo&amp;#34; , &amp;#34;monaco&amp;#34; , &amp;#34;courier new&amp;#34; , monospace ; color: rgb(96 , 137 , 180)&quot;&gt;continuationCallback&lt;/span&gt;&lt;span style=&quot;font-family: &amp;#34;fira code&amp;#34; , &amp;#34;menlo&amp;#34; , &amp;#34;monaco&amp;#34; , &amp;#34;courier new&amp;#34; , monospace&quot;&gt; &lt;/span&gt;&lt;span style=&quot;font-family: &amp;#34;fira code&amp;#34; , &amp;#34;menlo&amp;#34; , &amp;#34;monaco&amp;#34; , &amp;#34;courier new&amp;#34; , monospace ; color: rgb(103 , 104 , 103)&quot;&gt;=&lt;/span&gt;&lt;span style=&quot;font-family: &amp;#34;fira code&amp;#34; , &amp;#34;menlo&amp;#34; , &amp;#34;monaco&amp;#34; , &amp;#34;courier new&amp;#34; , monospace&quot;&gt; &lt;/span&gt;&lt;span style=&quot;color: #ce6700&quot;&gt;task.callback&lt;/span&gt;(&lt;span style=&quot;color: #6089b4&quot;&gt;didUserCallbackTimeout&lt;/span&gt;)&lt;/div&gt;&lt;/div&gt;" style="whiteSpace=wrap;html=1;fontSize=18;fontColor=#E6FFCC;align=left;" parent="1" vertex="1">
                    <mxGeometry x="290" y="450" width="740" height="330" as="geometry"/>
                </mxCell>
            </root>
        </mxGraphModel>
    </diagram>
</mxfile>